<svg width="1920" height="1081" viewBox="0 0 1920 1081" fill="none" xmlns="http://www.w3.org/2000/svg">
<g clip-path="url(#clip0_13362_741)">
<rect width="1920" height="1080" transform="translate(0 0.625)" fill="#000348"/>
<path d="M0.732851 972.549L130.553 951.362L189.457 1025.97L197.473 1024.66L229.599 935.198L359.419 914.011L280.902 1075.48L426.875 1218.35L297.314 1239.49L218.308 1152.33L210.291 1153.64L163.356 1261.35L33.5358 1282.54L126.772 1100.64L0.732851 972.549Z" fill="#00175E"/>
<path d="M309.256 587.736L502.938 556.127L590.818 667.441L602.778 665.489L650.707 532.011L844.389 500.402L727.247 741.304L945.029 954.449L751.733 985.995L633.862 855.954L621.902 857.906L551.878 1018.61L358.196 1050.22L497.298 778.832L309.256 587.736Z" fill="#00175E"/>
<path d="M243.825 320L306.906 309.706L335.528 345.96L339.424 345.324L355.034 301.851L418.115 291.556L379.962 370.017L450.893 439.437L387.937 449.711L349.548 407.357L345.652 407.993L322.846 460.334L259.765 470.629L305.069 382.239L243.825 320Z" fill="#00175E"/>
<path d="M746.276 355.971L790.252 348.794L810.205 374.069L812.921 373.625L823.803 343.319L867.78 336.142L841.182 390.839L890.63 439.235L846.741 446.398L819.979 416.871L817.263 417.314L801.364 453.803L757.387 460.98L788.971 399.36L746.276 355.971Z" fill="#00175E"/>
<path d="M194.276 748.971L238.252 741.794L258.205 767.069L260.921 766.625L271.803 736.319L315.78 729.142L289.182 783.839L338.63 832.235L294.741 839.398L267.979 809.871L265.263 810.314L249.364 846.803L205.387 853.98L236.971 792.36L194.276 748.971Z" fill="#00175E"/>
<path d="M818.276 1019.97L862.252 1012.79L882.205 1038.07L884.921 1037.63L895.803 1007.32L939.78 1000.14L913.182 1054.84L962.63 1103.23L918.741 1110.4L891.979 1080.87L889.263 1081.31L873.364 1117.8L829.387 1124.98L860.971 1063.36L818.276 1019.97Z" fill="#00175E"/>
<path d="M733.791 -102.039L811.596 -114.737L846.899 -70.0201L851.704 -70.8043L870.958 -124.425L948.763 -137.123L901.705 -40.348L989.192 45.2762L911.541 57.9488L864.191 5.70885L859.386 6.49299L831.256 71.0515L753.451 83.7494L809.33 -25.2724L733.791 -102.039Z" fill="#00175E"/>
<path d="M944.791 812.961L1022.6 800.263L1057.9 844.98L1062.7 844.196L1081.96 790.575L1159.76 777.877L1112.7 874.652L1200.19 960.276L1122.54 972.949L1075.19 920.709L1070.39 921.493L1042.26 986.051L964.451 998.749L1020.33 889.728L944.791 812.961Z" fill="#00175E"/>
<path d="M439.837 94.4034L540.465 77.9808L586.123 135.814L592.337 134.8L617.238 65.4512L717.866 49.0286L657.004 174.19L770.154 284.93L669.726 301.32L608.486 233.756L602.272 234.771L565.891 318.266L465.263 334.688L537.534 193.688L439.837 94.4034Z" fill="#00175E"/>
<path d="M757.132 133.628L1009.82 92.3894L1124.47 237.616L1140.08 235.069L1202.61 60.9263L1455.29 19.6874L1302.46 333.981L1586.59 612.062L1334.41 653.219L1180.63 483.56L1165.03 486.106L1073.67 695.772L820.981 737.011L1002.46 382.942L757.132 133.628Z" fill="#00175E"/>
<path fill-rule="evenodd" clip-rule="evenodd" d="M1429.2 909.871L1374.12 924.786L1388.72 869.721L1429.2 909.882V909.871Z" fill="#006AF2"/>
<path fill-rule="evenodd" clip-rule="evenodd" d="M1398.31 926.336L1431.37 917.39L1425.43 939.779L1420.22 959.398L1389.34 928.765L1398.31 926.336Z" fill="#003CF0"/>
<path fill-rule="evenodd" clip-rule="evenodd" d="M1473.55 953.551L1438.83 919.104L1430.72 949.682L1426.3 966.344L1473.55 953.562V953.551Z" fill="#000FB0"/>
<path fill-rule="evenodd" clip-rule="evenodd" d="M1521.22 893.077L1501.04 969.146L1445.13 913.674L1463.89 908.596L1521.22 893.088V893.077Z" fill="#006AF2"/>
<path fill-rule="evenodd" clip-rule="evenodd" d="M1455.19 827.56L1435.01 903.629L1379.09 848.157L1455.19 827.571V827.56Z" fill="#000FB0"/>
<path d="M1532.2 863.39C1531.17 862.027 1529.56 861.357 1527.38 861.357C1525.19 861.357 1523.56 862.038 1522.53 863.39C1521.51 864.753 1520.99 866.578 1520.99 868.875C1520.99 871.172 1521.51 872.997 1522.53 874.359C1523.56 875.733 1525.18 876.415 1527.38 876.415C1529.58 876.415 1531.17 875.733 1532.2 874.359C1533.21 872.986 1533.72 871.161 1533.72 868.875C1533.72 866.589 1533.21 864.764 1532.2 863.39Z" fill="#003CF0"/>
<path d="M1540.4 879.361L1554.07 875.657L1543.49 865.16C1543.7 866.325 1543.81 867.556 1543.81 868.875C1543.81 873.217 1542.66 876.712 1540.39 879.361H1540.4Z" fill="#003CF0"/>
<path d="M1510.9 868.875C1510.9 863.907 1512.38 860.049 1515.34 857.323C1518.29 854.586 1522.3 853.223 1527.39 853.223C1529 853.223 1530.51 853.377 1531.91 853.663L1472.42 794.651L1472.17 795.619L1456.08 856.268C1458.81 854.245 1462.35 853.223 1466.68 853.223C1471.4 853.223 1475.2 854.388 1478.1 856.707C1480.99 859.015 1482.43 862.06 1482.43 865.841H1472.43C1472.43 865.456 1472.3 864.94 1472.03 864.269C1471.83 863.775 1471.53 863.313 1471.15 862.884C1470.73 862.456 1470.13 862.104 1469.34 861.796C1468.56 861.499 1467.67 861.346 1466.68 861.346C1462.62 861.346 1460.57 863.852 1460.57 868.864C1460.57 873.875 1462.61 876.403 1466.68 876.403C1467.69 876.403 1468.6 876.25 1469.37 875.953C1470.15 875.656 1470.74 875.271 1471.15 874.81C1471.9 873.963 1472.32 873.139 1472.39 872.348L1472.43 871.919H1482.43C1482.43 875.689 1480.99 878.723 1478.1 881.031C1475.2 883.35 1471.4 884.515 1466.68 884.515C1461.67 884.515 1457.71 883.141 1454.81 880.393C1453.13 878.8 1451.96 876.81 1451.25 874.469L1442.96 905.717L1472.7 897.671L1522.9 884.086C1519.9 883.493 1517.37 882.273 1515.34 880.393C1512.38 877.645 1510.9 873.799 1510.9 868.864V868.875ZM1501.6 884.097H1491.96V861.477H1481.99V853.641H1511.56V861.477H1501.59V884.097H1501.6Z" fill="#003CF0"/>
<path d="M1543.81 868.875C1543.81 867.556 1543.7 866.325 1543.49 865.16L1531.89 853.663C1530.49 853.388 1528.99 853.223 1527.38 853.223C1522.29 853.223 1518.27 854.586 1515.33 857.323C1512.37 860.06 1510.89 863.907 1510.89 868.875C1510.89 873.843 1512.37 877.656 1515.33 880.404C1517.36 882.284 1519.89 883.504 1522.89 884.097L1540.39 879.36C1542.66 876.711 1543.81 873.216 1543.81 868.875ZM1527.38 876.414C1525.18 876.414 1523.56 875.733 1522.53 874.359C1521.51 872.996 1520.99 871.172 1520.99 868.875C1520.99 866.577 1521.51 864.753 1522.53 863.39C1523.56 862.027 1525.18 861.357 1527.38 861.357C1529.57 861.357 1531.17 862.038 1532.2 863.39C1533.21 864.764 1533.72 866.588 1533.72 868.875C1533.72 871.161 1533.21 872.985 1532.2 874.359C1531.17 875.733 1529.56 876.414 1527.38 876.414Z" fill="white"/>
<path d="M1511.57 853.651H1481.99V861.488H1491.96V884.097H1501.6V861.488H1511.57V853.651Z" fill="white"/>
<path d="M1466.68 884.526C1471.4 884.526 1475.2 883.361 1478.1 881.042C1480.99 878.734 1482.43 875.7 1482.43 871.93H1472.43L1472.39 872.359C1472.32 873.15 1471.9 873.975 1471.15 874.821C1470.75 875.294 1470.16 875.667 1469.36 875.964C1468.6 876.261 1467.7 876.415 1466.68 876.415C1462.62 876.415 1460.57 873.898 1460.57 868.875C1460.57 863.852 1462.61 861.357 1466.68 861.357C1467.67 861.357 1468.55 861.511 1469.34 861.807C1470.12 862.104 1470.73 862.467 1471.15 862.896C1471.53 863.324 1471.83 863.786 1472.02 864.28C1472.3 864.951 1472.43 865.468 1472.43 865.852H1482.43C1482.43 862.071 1480.99 859.027 1478.1 856.719C1475.2 854.399 1471.4 853.234 1466.68 853.234C1462.35 853.234 1458.82 854.257 1456.08 856.279L1451.25 874.491C1451.95 876.843 1453.13 878.822 1454.81 880.415C1457.71 883.163 1461.67 884.537 1466.68 884.537V884.526Z" fill="white"/>
<path d="M1618.76 857.841C1614.02 853.319 1611.66 846.957 1611.66 838.756C1611.66 830.531 1614.02 824.158 1618.76 819.636C1623.49 815.113 1629.98 812.852 1638.23 812.852C1645.96 812.852 1652.21 814.773 1656.96 818.616C1661.7 822.436 1664.06 827.474 1664.06 833.73H1647.65C1647.65 833.097 1647.43 832.23 1646.98 831.129C1646.65 830.309 1646.17 829.547 1645.54 828.844C1644.86 828.141 1643.88 827.544 1642.59 827.052C1641.3 826.56 1639.85 826.314 1638.23 826.314C1631.55 826.314 1628.21 830.461 1628.21 838.756C1628.21 847.074 1631.55 851.234 1638.23 851.234C1639.89 851.234 1641.36 850.987 1642.62 850.495C1643.91 850.003 1644.88 849.371 1645.54 848.597C1646.78 847.191 1647.46 845.832 1647.58 844.52L1647.65 843.817H1664.06C1664.06 850.05 1661.7 855.076 1656.96 858.896C1652.21 862.739 1645.96 864.66 1638.23 864.66C1630.01 864.66 1623.51 862.387 1618.76 857.841ZM1681.13 826.525H1664.79V813.555H1713.29V826.525H1696.95V863.957H1681.13V826.525ZM1720.9 857.841C1716.05 853.296 1713.63 846.934 1713.63 838.756C1713.63 830.531 1716.05 824.158 1720.9 819.636C1725.73 815.113 1732.31 812.852 1740.65 812.852C1748.97 812.852 1755.55 815.113 1760.37 819.636C1765.2 824.181 1767.61 830.555 1767.61 838.756C1767.61 846.934 1765.2 853.296 1760.37 857.841C1755.5 862.387 1748.93 864.66 1740.65 864.66C1732.36 864.66 1725.78 862.387 1720.9 857.841ZM1748.56 847.824C1750.23 845.551 1751.06 842.529 1751.06 838.756C1751.06 834.983 1750.23 831.961 1748.56 829.688C1746.88 827.438 1744.24 826.314 1740.65 826.314C1737.05 826.314 1734.4 827.438 1732.71 829.688C1731.02 831.937 1730.18 834.96 1730.18 838.756C1730.18 842.552 1731.02 845.575 1732.71 847.824C1734.4 850.097 1737.05 851.234 1740.65 851.234C1744.24 851.234 1746.88 850.097 1748.56 847.824ZM1616.09 913.37C1612.54 909.978 1610.76 905.207 1610.76 899.056C1610.76 892.888 1612.54 888.108 1616.09 884.716C1619.64 881.324 1624.5 879.628 1630.69 879.628C1636.49 879.628 1641.17 881.069 1644.74 883.951C1648.29 886.816 1650.07 890.594 1650.07 895.287H1637.76C1637.76 894.812 1637.59 894.162 1637.25 893.336C1637.01 892.721 1636.65 892.15 1636.17 891.622C1635.66 891.095 1634.93 890.647 1633.96 890.278C1632.99 889.909 1631.9 889.725 1630.69 889.725C1625.68 889.725 1623.18 892.835 1623.18 899.056C1623.18 905.295 1625.68 908.414 1630.69 908.414C1631.94 908.414 1633.04 908.23 1633.99 907.861C1634.95 907.492 1635.68 907.017 1636.17 906.437C1637.11 905.383 1637.61 904.364 1637.7 903.379L1637.76 902.852H1650.07C1650.07 907.527 1648.29 911.297 1644.74 914.161C1641.17 917.043 1636.49 918.484 1630.69 918.484C1624.52 918.484 1619.65 916.78 1616.09 913.37ZM1657.46 914.926C1654.53 912.553 1653.06 909.065 1653.06 904.46C1653.06 899.856 1654.53 896.367 1657.46 893.995C1660.38 891.622 1664.32 890.436 1669.27 890.436C1674.21 890.436 1678.14 891.622 1681.05 893.995C1683.99 896.367 1685.46 899.856 1685.46 904.46C1685.46 909.065 1683.99 912.553 1681.05 914.926C1678.14 917.298 1674.21 918.484 1669.27 918.484C1664.32 918.484 1660.38 917.298 1657.46 914.926ZM1673.15 908.151C1674.04 907.237 1674.49 906.007 1674.49 904.46C1674.49 902.914 1674.04 901.675 1673.15 900.743C1672.25 899.83 1670.96 899.373 1669.27 899.373C1667.57 899.373 1666.27 899.83 1665.37 900.743C1664.47 901.675 1664.03 902.914 1664.03 904.46C1664.03 906.007 1664.47 907.237 1665.37 908.151C1666.27 909.082 1667.57 909.548 1669.27 909.548C1670.96 909.548 1672.25 909.082 1673.15 908.151ZM1721.32 917.957H1710.54V904.935C1710.54 903.406 1710.08 902.184 1709.17 901.271C1708.26 900.339 1707 899.873 1705.4 899.873C1703.77 899.873 1702.5 900.33 1701.6 901.244C1700.73 902.14 1700.29 903.371 1700.29 904.935V917.957H1689.48V890.963H1700.29V895.814H1700.81C1700.94 895.392 1701.34 894.759 1702.03 893.916C1702.5 893.336 1703.08 892.8 1703.77 892.308C1704.52 891.798 1705.51 891.359 1706.72 890.99C1707.93 890.621 1709.21 890.436 1710.54 890.436C1713.88 890.436 1716.52 891.376 1718.45 893.257C1720.36 895.155 1721.32 897.993 1721.32 901.771V917.957ZM1747.07 892.044V900.137H1739.47V917.957H1728.67V900.137H1723.76V894.206L1728.67 892.044V891.385C1728.67 887.378 1729.84 884.417 1732.2 882.502C1734.57 880.586 1738.25 879.628 1743.24 879.628C1744.37 879.628 1745.45 879.734 1746.49 879.945C1747.54 880.138 1748.33 880.358 1748.86 880.604L1749.52 880.973V889.118C1748.29 888.363 1746.85 887.985 1745.19 887.985C1741.38 887.985 1739.47 889.268 1739.47 891.833V892.044H1747.07ZM1760.43 880.155H1773.67L1778.31 890.252H1779.12L1783.76 880.155H1797L1786.58 897.975L1798.76 917.957H1785.56L1779.12 905.963H1778.31L1771.9 917.957H1758.67L1770.87 897.975L1760.43 880.155Z" fill="white"/>
<path d="M1625.58 948.957H1609.33V945.426C1609.33 944.598 1609.52 943.864 1609.91 943.224C1610.29 942.577 1610.81 942.056 1611.47 941.662C1612.59 940.99 1614.05 940.407 1615.85 939.915C1616.36 939.776 1616.8 939.653 1617.15 939.546C1617.51 939.431 1617.89 939.288 1618.28 939.116C1618.69 938.943 1619.01 938.767 1619.24 938.587C1619.48 938.406 1619.68 938.189 1619.83 937.935C1619.99 937.68 1620.07 937.406 1620.07 937.11C1620.07 936.052 1619.28 935.524 1617.71 935.524C1616.12 935.524 1615.33 936.221 1615.33 937.615V938.55H1609.78V937.615C1609.78 935.335 1610.43 933.67 1611.73 932.62C1613.01 931.587 1615 931.07 1617.69 931.07C1620.36 931.07 1622.34 931.566 1623.65 932.559C1624.95 933.551 1625.6 935.068 1625.6 937.11C1625.6 938.25 1625.27 939.255 1624.59 940.124C1623.93 940.985 1623.11 941.646 1622.12 942.105C1621.2 942.531 1620.24 942.909 1619.24 943.237C1618.4 943.507 1617.58 943.766 1616.78 944.012C1616.1 944.233 1615.76 944.455 1615.76 944.676H1625.58V948.957ZM1642.59 933.506C1644.12 935.138 1644.89 937.348 1644.89 940.137C1644.89 942.933 1644.12 945.139 1642.59 946.755C1641.05 948.387 1638.92 949.203 1636.19 949.203C1633.47 949.203 1631.34 948.387 1629.8 946.755C1628.26 945.123 1627.49 942.917 1627.49 940.137C1627.49 937.356 1628.26 935.146 1629.8 933.506C1631.35 931.882 1633.47 931.07 1636.19 931.07C1638.92 931.07 1641.05 931.882 1642.59 933.506ZM1636.19 935.782C1634.25 935.782 1633.29 937.233 1633.29 940.137C1633.29 943.048 1634.25 944.504 1636.19 944.504C1638.12 944.504 1639.08 943.048 1639.08 940.137C1639.08 937.233 1638.12 935.782 1636.19 935.782ZM1662.89 948.957H1646.64V945.426C1646.64 944.598 1646.83 943.864 1647.22 943.224C1647.6 942.577 1648.12 942.056 1648.78 941.662C1649.9 940.99 1651.36 940.407 1653.16 939.915C1653.68 939.776 1654.11 939.653 1654.46 939.546C1654.83 939.431 1655.2 939.288 1655.6 939.116C1656 938.943 1656.32 938.767 1656.56 938.587C1656.79 938.406 1656.99 938.189 1657.15 937.935C1657.3 937.68 1657.38 937.406 1657.38 937.11C1657.38 936.052 1656.59 935.524 1655.02 935.524C1653.44 935.524 1652.64 936.221 1652.64 937.615V938.55H1647.1V937.615C1647.1 935.335 1647.74 933.67 1649.04 932.62C1650.33 931.587 1652.32 931.07 1655.01 931.07C1657.67 931.07 1659.66 931.566 1660.96 932.559C1662.26 933.551 1662.92 935.068 1662.92 937.11C1662.92 938.25 1662.58 939.255 1661.91 940.124C1661.24 940.985 1660.42 941.646 1659.43 942.105C1658.52 942.531 1657.56 942.909 1656.56 943.237C1655.71 943.507 1654.89 943.766 1654.1 944.012C1653.41 944.233 1653.07 944.455 1653.07 944.676H1662.89V948.957ZM1674.2 937.11C1676.29 937.11 1677.92 937.582 1679.11 938.525C1680.29 939.476 1680.88 940.928 1680.88 942.88C1680.88 944.955 1680.21 946.529 1678.88 947.604C1677.55 948.67 1675.58 949.203 1672.97 949.203C1670.39 949.203 1668.43 948.703 1667.08 947.702C1665.74 946.702 1665.06 945.271 1665.06 943.409H1670.6C1670.59 943.425 1670.59 943.47 1670.6 943.544C1670.62 943.618 1670.66 943.725 1670.75 943.864C1670.83 943.995 1670.94 944.118 1671.09 944.233C1671.51 944.528 1672.14 944.676 1672.97 944.676C1673.77 944.676 1674.36 944.528 1674.76 944.233C1675.15 943.93 1675.34 943.479 1675.34 942.88C1675.34 942.273 1675.13 941.814 1674.71 941.502C1674.29 941.182 1673.71 941.022 1672.97 941.022C1672.18 941.022 1671.6 941.121 1671.23 941.318C1670.91 941.49 1670.72 941.65 1670.66 941.797L1670.6 941.908H1665.06V931.316H1679.68V935.61H1670.45V937.873H1670.57C1670.65 937.808 1670.76 937.738 1670.91 937.664C1671.05 937.582 1671.43 937.467 1672.06 937.32C1672.71 937.18 1673.42 937.11 1674.2 937.11Z" fill="#006AF2"/>
</g>
<defs>
<clipPath id="clip0_13362_741">
<rect width="1920" height="1080" fill="white" transform="translate(0 0.625)"/>
</clipPath>
</defs>
</svg>
