<svg width="1920" height="1080" viewBox="0 0 1920 1080" fill="none" xmlns="http://www.w3.org/2000/svg">
<g clip-path="url(#clip0_13362_705)">
<rect width="1920" height="1080" fill="#000348"/>
<path d="M0.732851 971.924L130.553 950.737L189.457 1025.35L197.473 1024.04L229.599 934.573L359.419 913.386L280.902 1074.86L426.875 1217.72L297.314 1238.87L218.308 1151.7L210.291 1153.01L163.356 1260.73L33.5358 1281.92L126.772 1100.01L0.732851 971.924Z" fill="#00175E"/>
<path d="M309.256 587.111L502.938 555.502L590.818 666.816L602.778 664.864L650.707 531.386L844.389 499.777L727.247 740.679L945.029 953.824L751.733 985.37L633.862 855.329L621.902 857.281L551.878 1017.99L358.196 1049.6L497.298 778.207L309.256 587.111Z" fill="#00175E"/>
<path d="M243.825 319.376L306.906 309.081L335.528 345.335L339.424 344.699L355.034 301.226L418.115 290.931L379.962 369.392L450.893 438.812L387.937 449.086L349.548 406.733L345.652 407.368L322.846 459.709L259.765 470.004L305.069 381.615L243.825 319.376Z" fill="#00175E"/>
<path d="M746.276 355.347L790.252 348.17L810.205 373.444L812.921 373.001L823.803 342.694L867.78 335.517L841.182 390.215L890.63 438.61L846.741 445.773L819.979 416.246L817.263 416.69L801.364 453.178L757.387 460.355L788.971 398.736L746.276 355.347Z" fill="#00175E"/>
<path d="M194.276 748.347L238.252 741.17L258.205 766.444L260.921 766.001L271.803 735.694L315.78 728.517L289.182 783.215L338.63 831.61L294.741 838.773L267.979 809.246L265.263 809.69L249.364 846.178L205.387 853.355L236.971 791.736L194.276 748.347Z" fill="#00175E"/>
<path d="M818.276 1019.35L862.252 1012.17L882.205 1037.44L884.921 1037L895.803 1006.69L939.78 999.517L913.182 1054.21L962.63 1102.61L918.741 1109.77L891.979 1080.25L889.263 1080.69L873.364 1117.18L829.387 1124.36L860.971 1062.74L818.276 1019.35Z" fill="#00175E"/>
<path d="M733.791 -102.664L811.596 -115.362L846.899 -70.6449L851.704 -71.429L870.958 -125.05L948.763 -137.747L901.705 -40.9727L989.192 44.6514L911.541 57.3241L864.191 5.08409L859.386 5.86823L831.256 70.4267L753.451 83.1246L809.33 -25.8971L733.791 -102.664Z" fill="#00175E"/>
<path d="M944.791 812.336L1022.6 799.638L1057.9 844.355L1062.7 843.571L1081.96 789.95L1159.76 777.253L1112.7 874.027L1200.19 959.651L1122.54 972.324L1075.19 920.084L1070.39 920.868L1042.26 985.427L964.451 998.125L1020.33 889.103L944.791 812.336Z" fill="#00175E"/>
<path d="M439.837 93.7786L540.465 77.356L586.123 135.189L592.337 134.175L617.238 64.8265L717.866 48.4039L657.004 173.565L770.154 284.305L669.726 300.695L608.486 233.132L602.272 234.146L565.891 317.641L465.263 334.064L537.534 193.063L439.837 93.7786Z" fill="#00175E"/>
<path d="M757.132 133.004L1009.82 91.7647L1124.47 236.991L1140.08 234.444L1202.61 60.3015L1455.29 19.0626L1302.46 333.357L1586.59 611.437L1334.41 652.594L1180.63 482.935L1165.03 485.481L1073.67 695.147L820.981 736.386L1002.46 382.318L757.132 133.004Z" fill="#00175E"/>
<path d="M1268.15 159.155L1446.65 336.254L1203.72 402.028L1268.15 159.155Z" stroke="#006AF2" stroke-width="5"/>
<path fill-rule="evenodd" clip-rule="evenodd" d="M1331.95 407.482L1461.01 372.555L1437.84 459.958L1417.5 536.549L1296.93 416.965L1331.95 407.482Z" fill="#003CF0"/>
<path d="M1430.03 637.095L1453.26 549.49L1453.26 549.489L1496.83 385.225L1682 568.929L1430.03 637.095Z" stroke="#003CF0" stroke-width="5"/>
<path fill-rule="evenodd" clip-rule="evenodd" d="M2126.01 193.09L1966.6 794.026L1524.9 355.805L1673.12 315.691L2126.01 193.177V193.09Z" fill="#006AF2"/>
<path fill-rule="evenodd" clip-rule="evenodd" d="M1512.31 173.601L1476.33 309.238L1376.63 210.328L1512.31 173.621V173.601Z" fill="#000FB0"/>
<path d="M2434.61 -54.6992L2328.22 -160.281L1782.57 -701.602L1780.25 -692.728L1632.71 -136.281L1588.34 30.815L1512.31 317.51L1785.09 243.693L2245.63 119.052L2406.28 75.589L2531.72 41.6051L2434.61 -54.6992Z" fill="#003CF0"/>
<path fill-rule="evenodd" clip-rule="evenodd" d="M1429.2 909.247L1374.12 924.162L1388.72 869.096L1429.2 909.258V909.247Z" fill="#006AF2"/>
<path fill-rule="evenodd" clip-rule="evenodd" d="M1398.31 925.712L1431.37 916.765L1425.43 939.154L1420.22 958.773L1389.34 928.141L1398.31 925.712Z" fill="#003CF0"/>
<path fill-rule="evenodd" clip-rule="evenodd" d="M1473.55 952.925L1438.83 918.479L1430.72 949.057L1426.3 965.719L1473.55 952.936V952.925Z" fill="#000FB0"/>
<path fill-rule="evenodd" clip-rule="evenodd" d="M1521.22 892.452L1501.04 968.521L1445.13 913.049L1463.89 907.971L1521.22 892.463V892.452Z" fill="#006AF2"/>
<path fill-rule="evenodd" clip-rule="evenodd" d="M1455.19 826.935L1435.01 903.004L1379.09 847.532L1455.19 826.946V826.935Z" fill="#000FB0"/>
<path d="M1532.2 862.765C1531.17 861.402 1529.56 860.732 1527.38 860.732C1525.19 860.732 1523.56 861.413 1522.53 862.765C1521.51 864.128 1520.99 865.953 1520.99 868.25C1520.99 870.547 1521.51 872.372 1522.53 873.734C1523.56 875.108 1525.18 875.79 1527.38 875.79C1529.58 875.79 1531.17 875.108 1532.2 873.734C1533.21 872.361 1533.72 870.536 1533.72 868.25C1533.72 865.964 1533.21 864.139 1532.2 862.765Z" fill="#003CF0"/>
<path d="M1540.4 878.735L1554.07 875.031L1543.49 864.535C1543.7 865.7 1543.81 866.931 1543.81 868.25C1543.81 872.591 1542.66 876.087 1540.39 878.735H1540.4Z" fill="#003CF0"/>
<path d="M1510.9 868.25C1510.9 863.282 1512.38 859.424 1515.34 856.698C1518.29 853.961 1522.3 852.598 1527.39 852.598C1529 852.598 1530.51 852.752 1531.91 853.038L1472.42 794.026L1472.17 794.994L1456.08 855.643C1458.81 853.62 1462.35 852.598 1466.68 852.598C1471.4 852.598 1475.2 853.763 1478.1 856.082C1480.99 858.39 1482.43 861.435 1482.43 865.216H1472.43C1472.43 864.831 1472.3 864.315 1472.03 863.644C1471.83 863.15 1471.53 862.688 1471.15 862.259C1470.73 861.831 1470.13 861.479 1469.34 861.171C1468.56 860.874 1467.67 860.721 1466.68 860.721C1462.62 860.721 1460.57 863.227 1460.57 868.239C1460.57 873.25 1462.61 875.778 1466.68 875.778C1467.69 875.778 1468.6 875.625 1469.37 875.328C1470.15 875.031 1470.74 874.646 1471.15 874.185C1471.9 873.338 1472.32 872.514 1472.39 871.723L1472.43 871.294H1482.43C1482.43 875.064 1480.99 878.098 1478.1 880.406C1475.2 882.725 1471.4 883.89 1466.68 883.89C1461.67 883.89 1457.71 882.516 1454.81 879.768C1453.13 878.175 1451.96 876.185 1451.25 873.844L1442.96 905.092L1472.7 897.046L1522.9 883.461C1519.9 882.868 1517.37 881.648 1515.34 879.768C1512.38 877.02 1510.9 873.174 1510.9 868.239V868.25ZM1501.6 883.472H1491.96V860.852H1481.99V853.016H1511.56V860.852H1501.59V883.472H1501.6Z" fill="#003CF0"/>
<path d="M1543.81 868.25C1543.81 866.931 1543.7 865.7 1543.49 864.535L1531.89 853.038C1530.49 852.763 1528.99 852.598 1527.38 852.598C1522.29 852.598 1518.27 853.961 1515.33 856.698C1512.37 859.435 1510.89 863.282 1510.89 868.25C1510.89 873.218 1512.37 877.031 1515.33 879.779C1517.36 881.659 1519.89 882.879 1522.89 883.472L1540.39 878.735C1542.66 876.086 1543.81 872.591 1543.81 868.25ZM1527.38 875.789C1525.18 875.789 1523.56 875.108 1522.53 873.734C1521.51 872.371 1520.99 870.547 1520.99 868.25C1520.99 865.952 1521.51 864.128 1522.53 862.765C1523.56 861.402 1525.18 860.732 1527.38 860.732C1529.57 860.732 1531.17 861.413 1532.2 862.765C1533.21 864.139 1533.72 865.963 1533.72 868.25C1533.72 870.536 1533.21 872.36 1532.2 873.734C1531.17 875.108 1529.56 875.789 1527.38 875.789Z" fill="white"/>
<path d="M1511.57 853.026H1481.99V860.863H1491.96V883.472H1501.6V860.863H1511.57V853.026Z" fill="white"/>
<path d="M1466.68 883.901C1471.4 883.901 1475.2 882.736 1478.1 880.417C1480.99 878.109 1482.43 875.075 1482.43 871.305H1472.43L1472.39 871.734C1472.32 872.525 1471.9 873.35 1471.15 874.196C1470.75 874.669 1470.16 875.042 1469.36 875.339C1468.6 875.636 1467.7 875.79 1466.68 875.79C1462.62 875.79 1460.57 873.273 1460.57 868.25C1460.57 863.227 1462.61 860.732 1466.68 860.732C1467.67 860.732 1468.55 860.886 1469.34 861.182C1470.12 861.479 1470.73 861.842 1471.15 862.271C1471.53 862.699 1471.83 863.161 1472.02 863.655C1472.3 864.326 1472.43 864.843 1472.43 865.227H1482.43C1482.43 861.446 1480.99 858.402 1478.1 856.094C1475.2 853.774 1471.4 852.609 1466.68 852.609C1462.35 852.609 1458.82 853.632 1456.08 855.654L1451.25 873.866C1451.95 876.218 1453.13 878.197 1454.81 879.79C1457.71 882.538 1461.67 883.912 1466.68 883.912V883.901Z" fill="white"/>
<path d="M1618.76 857.216C1614.02 852.694 1611.66 846.332 1611.66 838.131C1611.66 829.906 1614.02 823.533 1618.76 819.011C1623.49 814.488 1629.98 812.227 1638.23 812.227C1645.96 812.227 1652.21 814.148 1656.96 817.991C1661.7 821.811 1664.06 826.849 1664.06 833.105H1647.65C1647.65 832.472 1647.43 831.605 1646.98 830.504C1646.65 829.684 1646.17 828.922 1645.54 828.219C1644.86 827.516 1643.88 826.919 1642.59 826.427C1641.3 825.935 1639.85 825.689 1638.23 825.689C1631.55 825.689 1628.21 829.836 1628.21 838.131C1628.21 846.449 1631.55 850.609 1638.23 850.609C1639.89 850.609 1641.36 850.362 1642.62 849.87C1643.91 849.378 1644.88 848.746 1645.54 847.972C1646.78 846.566 1647.46 845.207 1647.58 843.895L1647.65 843.192H1664.06C1664.06 849.425 1661.7 854.451 1656.96 858.271C1652.21 862.114 1645.96 864.035 1638.23 864.035C1630.01 864.035 1623.51 861.762 1618.76 857.216ZM1681.13 825.9H1664.79V812.93H1713.29V825.9H1696.95V863.332H1681.13V825.9ZM1720.9 857.216C1716.05 852.671 1713.63 846.309 1713.63 838.131C1713.63 829.906 1716.05 823.533 1720.9 819.011C1725.73 814.488 1732.31 812.227 1740.65 812.227C1748.97 812.227 1755.55 814.488 1760.37 819.011C1765.2 823.556 1767.61 829.93 1767.61 838.131C1767.61 846.309 1765.2 852.671 1760.37 857.216C1755.5 861.762 1748.93 864.035 1740.65 864.035C1732.36 864.035 1725.78 861.762 1720.9 857.216ZM1748.56 847.199C1750.23 844.926 1751.06 841.904 1751.06 838.131C1751.06 834.358 1750.23 831.336 1748.56 829.063C1746.88 826.813 1744.24 825.689 1740.65 825.689C1737.05 825.689 1734.4 826.813 1732.71 829.063C1731.02 831.312 1730.18 834.335 1730.18 838.131C1730.18 841.927 1731.02 844.95 1732.71 847.199C1734.4 849.472 1737.05 850.609 1740.65 850.609C1744.24 850.609 1746.88 849.472 1748.56 847.199ZM1616.09 912.745C1612.54 909.353 1610.76 904.582 1610.76 898.431C1610.76 892.263 1612.54 887.483 1616.09 884.091C1619.64 880.699 1624.5 879.003 1630.69 879.003C1636.49 879.003 1641.17 880.444 1644.74 883.326C1648.29 886.191 1650.07 889.969 1650.07 894.662H1637.76C1637.76 894.187 1637.59 893.537 1637.25 892.711C1637.01 892.096 1636.65 891.525 1636.17 890.997C1635.66 890.47 1634.93 890.022 1633.96 889.653C1632.99 889.284 1631.9 889.1 1630.69 889.1C1625.68 889.1 1623.18 892.21 1623.18 898.431C1623.18 904.67 1625.68 907.789 1630.69 907.789C1631.94 907.789 1633.04 907.605 1633.99 907.236C1634.95 906.867 1635.68 906.392 1636.17 905.812C1637.11 904.758 1637.61 903.739 1637.7 902.754L1637.76 902.227H1650.07C1650.07 906.902 1648.29 910.672 1644.74 913.536C1641.17 916.418 1636.49 917.859 1630.69 917.859C1624.52 917.859 1619.65 916.155 1616.09 912.745ZM1657.46 914.301C1654.53 911.928 1653.06 908.44 1653.06 903.835C1653.06 899.231 1654.53 895.742 1657.46 893.37C1660.38 890.997 1664.32 889.811 1669.27 889.811C1674.21 889.811 1678.14 890.997 1681.05 893.37C1683.99 895.742 1685.46 899.231 1685.46 903.835C1685.46 908.44 1683.99 911.928 1681.05 914.301C1678.14 916.673 1674.21 917.859 1669.27 917.859C1664.32 917.859 1660.38 916.673 1657.46 914.301ZM1673.15 907.526C1674.04 906.612 1674.49 905.382 1674.49 903.835C1674.49 902.289 1674.04 901.05 1673.15 900.118C1672.25 899.205 1670.96 898.748 1669.27 898.748C1667.57 898.748 1666.27 899.205 1665.37 900.118C1664.47 901.05 1664.03 902.289 1664.03 903.835C1664.03 905.382 1664.47 906.612 1665.37 907.526C1666.27 908.457 1667.57 908.923 1669.27 908.923C1670.96 908.923 1672.25 908.457 1673.15 907.526ZM1721.32 917.332H1710.54V904.31C1710.54 902.781 1710.08 901.559 1709.17 900.646C1708.26 899.714 1707 899.248 1705.4 899.248C1703.77 899.248 1702.5 899.705 1701.6 900.619C1700.73 901.515 1700.29 902.746 1700.29 904.31V917.332H1689.48V890.338H1700.29V895.189H1700.81C1700.94 894.767 1701.34 894.134 1702.03 893.291C1702.5 892.711 1703.08 892.175 1703.77 891.683C1704.52 891.173 1705.51 890.734 1706.72 890.365C1707.93 889.996 1709.21 889.811 1710.54 889.811C1713.88 889.811 1716.52 890.751 1718.45 892.632C1720.36 894.53 1721.32 897.368 1721.32 901.146V917.332ZM1747.07 891.419V899.512H1739.47V917.332H1728.67V899.512H1723.76V893.581L1728.67 891.419V890.76C1728.67 886.753 1729.84 883.792 1732.2 881.877C1734.57 879.961 1738.25 879.003 1743.24 879.003C1744.37 879.003 1745.45 879.109 1746.49 879.32C1747.54 879.513 1748.33 879.733 1748.86 879.979L1749.52 880.348V888.493C1748.29 887.738 1746.85 887.36 1745.19 887.36C1741.38 887.36 1739.47 888.643 1739.47 891.208V891.419H1747.07ZM1760.43 879.53H1773.67L1778.31 889.627H1779.12L1783.76 879.53H1797L1786.58 897.35L1798.76 917.332H1785.56L1779.12 905.338H1778.31L1771.9 917.332H1758.67L1770.87 897.35L1760.43 879.53Z" fill="white"/>
<path d="M1625.58 948.332H1609.33V944.801C1609.33 943.973 1609.52 943.239 1609.91 942.599C1610.29 941.952 1610.81 941.431 1611.47 941.037C1612.59 940.365 1614.05 939.782 1615.85 939.29C1616.36 939.151 1616.8 939.028 1617.15 938.921C1617.51 938.806 1617.89 938.663 1618.28 938.491C1618.69 938.318 1619.01 938.142 1619.24 937.962C1619.48 937.781 1619.68 937.564 1619.83 937.31C1619.99 937.055 1620.07 936.781 1620.07 936.485C1620.07 935.427 1619.28 934.899 1617.71 934.899C1616.12 934.899 1615.33 935.596 1615.33 936.99V937.925H1609.78V936.99C1609.78 934.71 1610.43 933.045 1611.73 931.995C1613.01 930.962 1615 930.445 1617.69 930.445C1620.36 930.445 1622.34 930.941 1623.65 931.934C1624.95 932.926 1625.6 934.443 1625.6 936.485C1625.6 937.625 1625.27 938.63 1624.59 939.499C1623.93 940.36 1623.11 941.021 1622.12 941.48C1621.2 941.906 1620.24 942.284 1619.24 942.612C1618.4 942.882 1617.58 943.141 1616.78 943.387C1616.1 943.608 1615.76 943.83 1615.76 944.051H1625.58V948.332ZM1642.59 932.881C1644.12 934.513 1644.89 936.723 1644.89 939.512C1644.89 942.308 1644.12 944.514 1642.59 946.13C1641.05 947.762 1638.92 948.578 1636.19 948.578C1633.47 948.578 1631.34 947.762 1629.8 946.13C1628.26 944.498 1627.49 942.292 1627.49 939.512C1627.49 936.731 1628.26 934.521 1629.8 932.881C1631.35 931.257 1633.47 930.445 1636.19 930.445C1638.92 930.445 1641.05 931.257 1642.59 932.881ZM1636.19 935.157C1634.25 935.157 1633.29 936.608 1633.29 939.512C1633.29 942.423 1634.25 943.879 1636.19 943.879C1638.12 943.879 1639.08 942.423 1639.08 939.512C1639.08 936.608 1638.12 935.157 1636.19 935.157ZM1662.89 948.332H1646.64V944.801C1646.64 943.973 1646.83 943.239 1647.22 942.599C1647.6 941.952 1648.12 941.431 1648.78 941.037C1649.9 940.365 1651.36 939.782 1653.16 939.29C1653.68 939.151 1654.11 939.028 1654.46 938.921C1654.83 938.806 1655.2 938.663 1655.6 938.491C1656 938.318 1656.32 938.142 1656.56 937.962C1656.79 937.781 1656.99 937.564 1657.15 937.31C1657.3 937.055 1657.38 936.781 1657.38 936.485C1657.38 935.427 1656.59 934.899 1655.02 934.899C1653.44 934.899 1652.64 935.596 1652.64 936.99V937.925H1647.1V936.99C1647.1 934.71 1647.74 933.045 1649.04 931.995C1650.33 930.962 1652.32 930.445 1655.01 930.445C1657.67 930.445 1659.66 930.941 1660.96 931.934C1662.26 932.926 1662.92 934.443 1662.92 936.485C1662.92 937.625 1662.58 938.63 1661.91 939.499C1661.24 940.36 1660.42 941.021 1659.43 941.48C1658.52 941.906 1657.56 942.284 1656.56 942.612C1655.71 942.882 1654.89 943.141 1654.1 943.387C1653.41 943.608 1653.07 943.83 1653.07 944.051H1662.89V948.332ZM1674.2 936.485C1676.29 936.485 1677.92 936.957 1679.11 937.9C1680.29 938.851 1680.88 940.303 1680.88 942.255C1680.88 944.33 1680.21 945.904 1678.88 946.979C1677.55 948.045 1675.58 948.578 1672.97 948.578C1670.39 948.578 1668.43 948.078 1667.08 947.077C1665.74 946.077 1665.06 944.646 1665.06 942.784H1670.6C1670.59 942.8 1670.59 942.845 1670.6 942.919C1670.62 942.993 1670.66 943.1 1670.75 943.239C1670.83 943.37 1670.94 943.493 1671.09 943.608C1671.51 943.903 1672.14 944.051 1672.97 944.051C1673.77 944.051 1674.36 943.903 1674.76 943.608C1675.15 943.305 1675.34 942.854 1675.34 942.255C1675.34 941.648 1675.13 941.189 1674.71 940.877C1674.29 940.557 1673.71 940.397 1672.97 940.397C1672.18 940.397 1671.6 940.496 1671.23 940.693C1670.91 940.865 1670.72 941.025 1670.66 941.172L1670.6 941.283H1665.06V930.691H1679.68V934.985H1670.45V937.248H1670.57C1670.65 937.183 1670.76 937.113 1670.91 937.039C1671.05 936.957 1671.43 936.842 1672.06 936.695C1672.71 936.555 1673.42 936.485 1674.2 936.485Z" fill="#006AF2"/>
</g>
<defs>
<clipPath id="clip0_13362_705">
<rect width="1920" height="1080" fill="white"/>
</clipPath>
</defs>
</svg>
