<svg xmlns="http://www.w3.org/2000/svg" version="1.1" xmlns:xlink="http://www.w3.org/1999/xlink" xmlns:svgjs="http://svgjs.dev/svgjs" width="56" height="56"><svg width="56" height="56" viewBox="0 0 56 56" fill="none" xmlns="http://www.w3.org/2000/svg">
    <path fill-rule="evenodd" clip-rule="evenodd" d="M8.84805 31.9247L13.1159 15.8334L24.9447 27.5681L8.84805 31.9247Z" fill="#004195"></path>
    <path fill-rule="evenodd" clip-rule="evenodd" d="M18.9736 54.7788L25.5761 29.8875L5.45653 35.3335L5.45677 35.3326L0 36.8096L18.7942 55.4556L18.9737 54.7788L18.9736 54.7788Z" fill="#1F2AFF"></path>
    <path fill-rule="evenodd" clip-rule="evenodd" d="M43.2413 45.7213L28.0092 30.6084L27.9007 30.5008L22.3646 51.371L43.2413 45.7213Z" fill="#0066EB"></path>
    <path fill-rule="evenodd" clip-rule="evenodd" d="M51.8335 22.7813L45.9373 45.0098L29.598 28.7987L36.4935 26.9325L51.8335 22.7813Z" fill="#00AAFF"></path>
    <path fill-rule="evenodd" clip-rule="evenodd" d="M30.1615 26.1554L28.9659 26.479L28.966 26.4787L28.9658 26.4787L35.9286 0.230039L35.9276 0.230308L35.9887 0L55.4528 19.3107L30.1615 26.1554Z" fill="#00AAFF"></path>
    <path fill-rule="evenodd" clip-rule="evenodd" d="M32.5376 3.63839L26.6421 25.8656L10.303 9.65534L32.5376 3.63839Z" fill="#003CF0"></path>
    <path d="M36.553 32.1696C35.4425 31.138 34.8872 29.6944 34.8872 27.8386C34.8872 25.9722 35.4425 24.5259 36.553 23.4997C37.6582 22.4735 39.1657 21.9604 41.0756 21.9604C42.9801 21.9604 44.485 22.4735 45.5902 23.4997C46.6953 24.5313 47.2479 25.9776 47.2479 27.8386C47.2479 29.6944 46.6953 31.138 45.5902 32.1696C44.4743 33.2011 42.9694 33.7169 41.0756 33.7169C39.1764 33.7169 37.6689 33.2011 36.553 32.1696ZM42.8863 29.8964C43.2672 29.3806 43.4576 28.6947 43.4576 27.8386C43.4576 26.9825 43.2672 26.2966 42.8863 25.7808C42.5 25.2704 41.8964 25.0151 41.0756 25.0151C40.2494 25.0151 39.6432 25.2704 39.2569 25.7808C38.8706 26.2913 38.6775 26.9772 38.6775 27.8386C38.6775 28.7 38.8706 29.3859 39.2569 29.8964C39.6432 30.4122 40.2494 30.6701 41.0756 30.6701C41.8964 30.6701 42.5 30.4122 42.8863 29.8964Z" fill="white"></path>
    <path d="M27.7766 25.063L24.0346 25.063L24.0346 22.1199L35.1399 22.1199L35.1399 25.063L31.3979 25.063L31.3979 33.5574L27.7766 33.5574L27.7766 25.063Z" fill="white"></path>
    <path d="M13.8257 32.1696C12.742 31.1433 12.2001 29.6997 12.2001 27.8386C12.2001 25.9722 12.742 24.5259 13.8257 23.4997C14.9094 22.4735 16.3955 21.9604 18.2839 21.9604C20.0543 21.9604 21.4841 22.3964 22.5732 23.2684C23.6569 24.1351 24.1987 25.2783 24.1987 26.6981L20.4406 26.6981C20.4406 26.5545 20.3897 26.3578 20.2877 26.1078C20.2126 25.9217 20.1026 25.7489 19.9578 25.5894C19.8022 25.4299 19.5769 25.2943 19.2818 25.1826C18.9867 25.071 18.6541 25.0151 18.2839 25.0151C16.7549 25.0151 15.9904 25.9563 15.9904 27.8386C15.9904 29.7263 16.7549 30.6701 18.2839 30.6701C18.6648 30.6701 19.0001 30.6142 19.2898 30.5026C19.5849 30.3909 19.8076 30.2474 19.9578 30.0719C20.2421 29.7528 20.3977 29.4444 20.4245 29.1467L20.4406 28.9872L24.1987 28.9872C24.1987 30.4016 23.6569 31.5421 22.5732 32.4088C21.4841 33.2809 20.0543 33.7169 18.2839 33.7169C16.4009 33.7169 14.9148 33.2011 13.8257 32.1696Z" fill="white"></path>
</svg><style>@media (prefers-color-scheme: light) { :root { filter: none; } }
@media (prefers-color-scheme: dark) { :root { filter: none; } }
</style></svg>