<svg width="1920" height="1080" viewBox="0 0 1920 1080" fill="none" xmlns="http://www.w3.org/2000/svg">
<rect width="1920" height="1080" fill="white"/>
<circle cx="1851.35" cy="82.7709" r="39.0865" stroke="#838383" stroke-width="4"/>
<path fill-rule="evenodd" clip-rule="evenodd" d="M1858.57 1025.81L1862.42 1040.03L1848.21 1036.26L1858.57 1025.81L1858.57 1025.81Z" fill="#006AF2"/>
<path fill-rule="evenodd" clip-rule="evenodd" d="M1862.82 1033.79L1860.51 1025.26L1866.29 1026.79L1871.35 1028.13L1863.44 1036.1L1862.82 1033.79Z" fill="#003CF0"/>
<path fill-rule="evenodd" clip-rule="evenodd" d="M1869.84 1014.37L1860.95 1023.33L1868.84 1025.42L1873.14 1026.56L1869.84 1014.37L1869.84 1014.37Z" fill="#000FB0"/>
<path fill-rule="evenodd" clip-rule="evenodd" d="M1854.23 1002.07L1873.86 1007.28L1859.55 1021.7L1858.24 1016.86L1854.24 1002.07L1854.23 1002.07Z" fill="#006AF2"/>
<path fill-rule="evenodd" clip-rule="evenodd" d="M1837.33 1019.11L1856.96 1024.32L1842.65 1038.74L1837.33 1019.11L1837.33 1019.11Z" fill="#000FB0"/>
<path d="M1846.58 999.238C1846.22 999.505 1846.05 999.919 1846.05 1000.48C1846.05 1001.05 1846.23 1001.47 1846.58 1001.73C1846.93 1002 1847.4 1002.13 1847.99 1002.13C1848.58 1002.13 1849.05 1002 1849.41 1001.73C1849.76 1001.47 1849.94 1001.05 1849.94 1000.48C1849.94 999.916 1849.76 999.505 1849.41 999.238C1849.05 998.977 1848.58 998.847 1847.99 998.847C1847.4 998.847 1846.93 998.977 1846.58 999.238Z" fill="#003CF0"/>
<path d="M1850.7 997.123L1849.74 993.595L1847.03 996.326C1847.33 996.272 1847.65 996.244 1847.99 996.244C1849.11 996.244 1850.01 996.538 1850.7 997.125L1850.7 997.123Z" fill="#003CF0"/>
<path d="M1847.99 1004.73C1846.71 1004.73 1845.71 1004.35 1845.01 1003.59C1844.3 1002.83 1843.95 1001.79 1843.95 1000.48C1843.95 1000.06 1843.99 999.675 1844.07 999.315L1828.84 1014.66L1829.09 1014.73L1844.74 1018.88C1844.22 1018.17 1843.95 1017.26 1843.95 1016.14C1843.95 1014.93 1844.25 1013.95 1844.85 1013.2C1845.45 1012.45 1846.23 1012.08 1847.21 1012.08L1847.21 1014.66C1847.11 1014.66 1846.98 1014.69 1846.8 1014.76C1846.67 1014.82 1846.56 1014.89 1846.44 1014.99C1846.33 1015.1 1846.24 1015.25 1846.16 1015.46C1846.09 1015.66 1846.05 1015.89 1846.05 1016.14C1846.05 1017.19 1846.69 1017.72 1847.99 1017.72C1849.28 1017.72 1849.93 1017.2 1849.93 1016.14C1849.93 1015.88 1849.89 1015.65 1849.82 1015.45C1849.74 1015.25 1849.64 1015.1 1849.52 1014.99C1849.3 1014.8 1849.09 1014.69 1848.89 1014.67L1848.78 1014.66L1848.78 1012.08C1849.75 1012.08 1850.53 1012.45 1851.13 1013.2C1851.73 1013.95 1852.03 1014.93 1852.03 1016.14C1852.03 1017.44 1851.67 1018.46 1850.96 1019.21C1850.55 1019.64 1850.04 1019.94 1849.43 1020.12L1857.5 1022.26L1855.42 1014.59L1851.92 1001.64C1851.76 1002.41 1851.45 1003.06 1850.96 1003.59C1850.25 1004.35 1849.26 1004.73 1847.99 1004.73L1847.99 1004.73ZM1851.92 1007.13L1851.92 1009.62L1846.08 1009.62L1846.08 1012.19L1844.06 1012.19L1844.06 1004.56L1846.08 1004.56L1846.08 1007.14L1851.92 1007.14L1851.92 1007.13Z" fill="#003CF0"/>
<path d="M1847.99 996.244C1847.65 996.244 1847.33 996.272 1847.03 996.326L1844.07 999.318C1843.99 999.681 1843.95 1000.07 1843.95 1000.48C1843.95 1001.8 1844.3 1002.83 1845.01 1003.59C1845.72 1004.35 1846.71 1004.74 1847.99 1004.74C1849.27 1004.74 1850.26 1004.35 1850.97 1003.59C1851.45 1003.07 1851.77 1002.41 1851.92 1001.64L1850.7 997.126C1850.01 996.539 1849.11 996.244 1847.99 996.244ZM1849.94 1000.48C1849.94 1001.05 1849.76 1001.47 1849.41 1001.73C1849.05 1002 1848.58 1002.13 1847.99 1002.13C1847.4 1002.13 1846.93 1002 1846.58 1001.73C1846.22 1001.47 1846.05 1001.05 1846.05 1000.48C1846.05 999.916 1846.23 999.505 1846.58 999.238C1846.93 998.978 1847.4 998.847 1847.99 998.847C1848.58 998.847 1849.05 998.978 1849.41 999.238C1849.76 999.505 1849.94 999.919 1849.94 1000.48Z" fill="white"/>
<path d="M1844.06 1004.56L1844.06 1012.19L1846.08 1012.19L1846.08 1009.62L1851.92 1009.62L1851.92 1007.13L1846.08 1007.13L1846.08 1004.56L1844.06 1004.56Z" fill="white"/>
<path d="M1852.03 1016.14C1852.03 1014.93 1851.73 1013.95 1851.13 1013.2C1850.53 1012.45 1849.75 1012.08 1848.78 1012.08L1848.78 1014.66L1848.89 1014.67C1849.09 1014.69 1849.31 1014.8 1849.53 1014.99C1849.65 1015.09 1849.74 1015.25 1849.82 1015.45C1849.9 1015.65 1849.94 1015.88 1849.94 1016.14C1849.94 1017.19 1849.29 1017.72 1847.99 1017.72C1846.69 1017.72 1846.05 1017.2 1846.05 1016.14C1846.05 1015.89 1846.09 1015.66 1846.17 1015.46C1846.24 1015.26 1846.34 1015.1 1846.45 1014.99C1846.56 1014.89 1846.68 1014.82 1846.81 1014.76C1846.98 1014.69 1847.11 1014.66 1847.21 1014.66L1847.21 1012.08C1846.24 1012.08 1845.45 1012.45 1844.85 1013.2C1844.26 1013.95 1843.96 1014.93 1843.96 1016.14C1843.96 1017.26 1844.22 1018.17 1844.74 1018.88L1849.44 1020.12C1850.05 1019.94 1850.56 1019.64 1850.97 1019.21C1851.68 1018.46 1852.03 1017.44 1852.03 1016.14L1852.03 1016.14Z" fill="white"/>
<path d="M1857.39 980.408C1855.56 982.316 1853 983.27 1849.69 983.27C1846.38 983.27 1843.81 982.316 1841.98 980.408C1840.16 978.499 1839.25 975.883 1839.25 972.557C1839.25 969.44 1840.02 966.922 1841.57 965.005C1843.11 963.096 1845.14 962.142 1847.66 962.142L1847.66 968.76C1847.41 968.76 1847.06 968.849 1846.62 969.029C1846.29 969.161 1845.98 969.355 1845.69 969.61C1845.41 969.884 1845.17 970.281 1844.97 970.8C1844.77 971.32 1844.67 971.906 1844.67 972.557C1844.67 975.25 1846.35 976.596 1849.69 976.596C1853.04 976.596 1854.72 975.25 1854.72 972.557C1854.72 971.887 1854.62 971.296 1854.42 970.786C1854.23 970.266 1853.97 969.874 1853.66 969.61C1853.09 969.109 1852.54 968.835 1852.01 968.788L1851.73 968.76L1851.73 962.142C1854.24 962.142 1856.27 963.096 1857.81 965.005C1859.36 966.922 1860.13 969.44 1860.13 972.557C1860.13 975.873 1859.22 978.49 1857.39 980.408ZM1844.76 955.262L1844.76 961.851L1839.53 961.851L1839.53 942.296L1844.76 942.296L1844.76 948.885L1859.85 948.885L1859.85 955.262L1844.76 955.262ZM1857.39 939.227C1855.55 941.183 1852.99 942.161 1849.69 942.161C1846.38 942.161 1843.81 941.183 1841.98 939.227C1840.16 937.281 1839.25 934.627 1839.25 931.264C1839.25 927.91 1840.16 925.26 1841.98 923.314C1843.81 921.368 1846.38 920.395 1849.69 920.395C1852.99 920.395 1855.55 921.368 1857.39 923.314C1859.22 925.279 1860.13 927.929 1860.13 931.264C1860.13 934.608 1859.22 937.263 1857.39 939.227ZM1853.35 928.076C1852.43 927.405 1851.21 927.069 1849.69 927.069C1848.17 927.069 1846.95 927.405 1846.03 928.076C1845.13 928.756 1844.67 929.818 1844.67 931.264C1844.67 932.719 1845.13 933.786 1846.03 934.466C1846.94 935.146 1848.16 935.487 1849.69 935.487C1851.22 935.487 1852.44 935.146 1853.35 934.466C1854.26 933.786 1854.72 932.719 1854.72 931.264C1854.72 929.818 1854.26 928.756 1853.35 928.076ZM1857.39 909.128C1855.56 911.037 1853 911.991 1849.69 911.991C1846.38 911.991 1843.81 911.037 1841.98 909.128C1840.16 907.22 1839.25 904.603 1839.25 901.278C1839.25 898.161 1840.02 895.643 1841.57 893.725C1843.11 891.817 1845.14 890.863 1847.66 890.863L1847.66 897.48C1847.41 897.48 1847.06 897.57 1846.62 897.75C1846.29 897.882 1845.98 898.076 1845.69 898.331C1845.41 898.605 1845.17 899.001 1844.97 899.521C1844.77 900.041 1844.67 900.626 1844.67 901.278C1844.67 903.97 1846.35 905.317 1849.69 905.317C1853.04 905.317 1854.72 903.97 1854.72 901.278C1854.72 900.607 1854.62 900.017 1854.42 899.507C1854.23 898.987 1853.97 898.595 1853.66 898.331C1853.09 897.83 1852.54 897.556 1852.01 897.509L1851.73 897.48L1851.73 890.863C1854.24 890.863 1856.27 891.817 1857.81 893.725C1859.36 895.643 1860.13 898.161 1860.13 901.278C1860.13 904.594 1859.22 907.211 1857.39 909.128ZM1858.22 886.887C1856.95 888.465 1855.07 889.254 1852.6 889.254C1850.12 889.254 1848.25 888.465 1846.97 886.887C1845.69 885.319 1845.06 883.203 1845.06 880.539C1845.06 877.885 1845.69 875.773 1846.97 874.205C1848.25 872.628 1850.12 871.839 1852.6 871.839C1855.07 871.839 1856.95 872.628 1858.22 874.205C1859.5 875.773 1860.13 877.885 1860.13 880.539C1860.13 883.203 1859.5 885.319 1858.22 886.887ZM1854.58 878.456C1854.09 877.974 1853.43 877.733 1852.6 877.733C1851.76 877.733 1851.1 877.974 1850.6 878.456C1850.11 878.938 1849.86 879.632 1849.86 880.539C1849.86 881.456 1850.11 882.155 1850.6 882.636C1851.1 883.118 1851.76 883.359 1852.6 883.359C1853.43 883.359 1854.09 883.118 1854.58 882.636C1855.08 882.155 1855.33 881.456 1855.33 880.539C1855.33 879.632 1855.08 878.938 1854.58 878.456ZM1859.85 852.559L1859.85 858.355L1852.85 858.355C1852.03 858.355 1851.37 858.601 1850.88 859.092C1850.38 859.583 1850.13 860.258 1850.13 861.118C1850.13 861.997 1850.38 862.677 1850.87 863.159C1851.35 863.631 1852.01 863.867 1852.85 863.867L1859.85 863.867L1859.85 869.677L1845.34 869.677L1845.34 863.867L1847.95 863.867L1847.95 863.584C1847.72 863.518 1847.38 863.3 1846.93 862.932C1846.62 862.677 1846.33 862.365 1846.06 861.997C1845.79 861.59 1845.55 861.061 1845.35 860.41C1845.16 859.758 1845.06 859.073 1845.06 858.355C1845.06 856.56 1845.56 855.143 1846.57 854.104C1847.59 853.074 1849.12 852.559 1851.15 852.559L1859.85 852.559ZM1845.92 838.721L1850.27 838.721L1850.27 842.802L1859.85 842.802L1859.85 848.612L1850.27 848.612L1850.27 851.248L1847.08 851.248L1845.92 848.612L1845.57 848.612C1843.41 848.612 1841.82 847.979 1840.79 846.713C1839.76 845.438 1839.25 843.459 1839.25 840.776C1839.25 840.171 1839.3 839.59 1839.42 839.033C1839.52 838.466 1839.64 838.041 1839.77 837.758L1839.97 837.404L1844.35 837.404C1843.94 838.065 1843.74 838.839 1843.74 839.727C1843.74 841.777 1844.43 842.802 1845.81 842.802L1845.92 842.802L1845.92 838.721ZM1839.53 831.535L1839.53 824.422L1844.96 821.928L1844.96 821.489L1839.53 818.995L1839.53 811.881L1849.11 817.479L1859.85 810.932L1859.85 818.031L1853.4 821.489L1853.4 821.928L1859.85 825.371L1859.85 832.485L1849.11 825.924L1839.53 831.535Z" fill="#000348"/>
<path d="M1859.76 789.737L1859.76 800.969L1857.32 800.969C1856.75 800.969 1856.24 800.836 1855.8 800.569C1855.35 800.303 1854.99 799.943 1854.72 799.489C1854.26 798.713 1853.85 797.704 1853.51 796.463C1853.42 796.106 1853.33 795.805 1853.26 795.561C1853.18 795.312 1853.08 795.051 1852.96 794.779C1852.84 794.501 1852.72 794.28 1852.6 794.116C1852.47 793.952 1852.32 793.816 1852.15 793.708C1851.97 793.6 1851.78 793.546 1851.58 793.546C1850.84 793.546 1850.48 794.091 1850.48 795.179C1850.48 796.273 1850.96 796.82 1851.92 796.82L1852.57 796.82L1852.57 800.654L1851.92 800.654C1850.35 800.654 1849.2 800.206 1848.47 799.311C1847.76 798.421 1847.4 797.046 1847.4 795.187C1847.4 793.345 1847.74 791.974 1848.43 791.072C1849.12 790.171 1850.16 789.72 1851.58 789.72C1852.36 789.72 1853.06 789.953 1853.66 790.418C1854.25 790.877 1854.71 791.446 1855.03 792.127C1855.32 792.761 1855.58 793.425 1855.81 794.116C1856 794.7 1856.18 795.267 1856.35 795.816C1856.5 796.287 1856.65 796.522 1856.8 796.522L1856.8 789.737L1859.76 789.737ZM1849.08 777.983C1850.21 776.923 1851.74 776.393 1853.67 776.393C1855.6 776.393 1857.12 776.923 1858.24 777.983C1859.37 779.043 1859.93 780.516 1859.93 782.404C1859.93 784.286 1859.37 785.757 1858.24 786.816C1857.11 787.882 1855.59 788.415 1853.67 788.415C1851.75 788.415 1850.22 787.882 1849.08 786.816C1847.96 785.751 1847.4 784.28 1847.4 782.404C1847.4 780.516 1847.96 779.043 1849.08 777.983ZM1850.66 782.404C1850.66 783.742 1851.66 784.41 1853.67 784.41C1855.68 784.41 1856.69 783.742 1856.69 782.404C1856.69 781.072 1855.68 780.406 1853.67 780.406C1851.66 780.406 1850.66 781.072 1850.66 782.404ZM1859.76 763.95L1859.76 775.181L1857.32 775.181C1856.75 775.181 1856.24 775.048 1855.8 774.781C1855.35 774.515 1854.99 774.155 1854.72 773.701C1854.26 772.925 1853.85 771.916 1853.51 770.675C1853.42 770.318 1853.33 770.017 1853.26 769.774C1853.18 769.524 1853.08 769.263 1852.96 768.991C1852.84 768.714 1852.72 768.493 1852.6 768.328C1852.47 768.164 1852.32 768.028 1852.15 767.92C1851.97 767.812 1851.78 767.759 1851.58 767.759C1850.84 767.759 1850.48 768.303 1850.48 769.391C1850.48 770.485 1850.96 771.032 1851.92 771.032L1852.57 771.032L1852.57 774.866L1851.92 774.866C1850.35 774.866 1849.2 774.419 1848.47 773.523C1847.76 772.633 1847.4 771.259 1847.4 769.399C1847.4 767.557 1847.74 766.186 1848.43 765.284C1849.12 764.383 1850.16 763.933 1851.58 763.933C1852.36 763.933 1853.06 764.165 1853.66 764.63C1854.25 765.089 1854.71 765.659 1855.03 766.339C1855.32 766.974 1855.58 767.637 1855.81 768.328C1856 768.912 1856.18 769.479 1856.35 770.029C1856.5 770.499 1856.65 770.734 1856.8 770.734L1856.8 763.95L1859.76 763.95ZM1851.58 756.131C1851.58 754.692 1851.9 753.561 1852.55 752.739C1853.21 751.923 1854.21 751.515 1855.56 751.515C1857 751.515 1858.09 751.977 1858.83 752.901C1859.56 753.819 1859.93 755.179 1859.93 756.982C1859.93 758.767 1859.59 760.125 1858.9 761.054C1858.2 761.984 1857.22 762.448 1855.93 762.448L1855.93 758.623C1855.94 758.628 1855.97 758.628 1856.02 758.623C1856.07 758.611 1856.15 758.577 1856.24 758.521C1856.33 758.464 1856.42 758.384 1856.5 758.282C1856.7 757.993 1856.8 757.56 1856.8 756.982C1856.8 756.432 1856.7 756.021 1856.5 755.749C1856.29 755.477 1855.98 755.344 1855.56 755.349C1855.14 755.349 1854.83 755.494 1854.61 755.783C1854.39 756.072 1854.28 756.471 1854.28 756.982C1854.28 757.531 1854.35 757.934 1854.48 758.189C1854.6 758.41 1854.71 758.54 1854.81 758.58L1854.89 758.623L1854.89 762.448L1847.57 762.448L1847.57 752.348L1850.54 752.348L1850.54 758.725L1852.1 758.725L1852.1 758.64C1852.06 758.589 1852.01 758.512 1851.96 758.41C1851.9 758.314 1851.82 758.047 1851.72 757.611C1851.62 757.163 1851.58 756.67 1851.58 756.131Z" fill="#006AF2"/>
</svg>
